<?xml version="1.0" encoding="iso-8859-1"?>
<!-- Generator: Adobe Illustrator 16.0.4, SVG Export Plug-In . SVG Version: 6.00 Build 0)  -->
<!DOCTYPE svg PUBLIC "-//W3C//DTD SVG 1.1//EN" "http://www.w3.org/Graphics/SVG/1.1/DTD/svg11.dtd">
<svg version="1.1" id="Calque_1" xmlns="http://www.w3.org/2000/svg" xmlns:xlink="http://www.w3.org/1999/xlink" x="0px" y="0px"
	 width="156.834px" height="141px" viewBox="0 0 156.834 141" style="enable-background:new 0 0 156.834 141;" xml:space="preserve"
	>
<path d="M1.308,0.178h3.205l10.016,16.23V0.178h2.598v20.086H14.07L3.906,4.057v16.207H1.308V0.178z"/>
<path d="M42.628,0.178h3.07l7.291,20.086h-2.98l-2.098-6.016h-7.879l-2.18,6.016h-2.789L42.628,0.178z M47.14,12.033l-3.092-8.871
	l-3.215,8.871H47.14z"/>
<path d="M70.508,0.178h8.028c2.722,0,4.839,0.98,6.339,2.941c1.34,1.77,2.012,4.035,2.012,6.792c0,2.133-0.398,4.062-1.188,5.786
	c-1.395,3.043-3.793,4.566-7.191,4.566h-8V0.178z M78.002,17.939c0.9,0,1.639-0.098,2.216-0.285
	c1.035-0.359,1.883-1.039,2.543-2.055c0.523-0.809,0.902-1.847,1.133-3.117c0.137-0.754,0.203-1.458,0.203-2.102
	c0-2.492-0.484-4.422-1.453-5.797c-0.965-1.379-2.523-2.066-4.669-2.066h-4.719v15.422H78.002z"/>
<path d="M112.136,0.178h2.75v20.086h-2.75V0.178z"/>
<path d="M146.438,0.178h3.07l7.293,20.086h-2.98l-2.098-6.016h-7.879l-2.18,6.016h-2.789L146.438,0.178z M150.95,12.033l-3.09-8.871
	l-3.215,8.871H150.95z"/>
<path d="M0.876,40.178h2.652v9.832l10.049-9.832h3.803l-8.582,8.109l8.76,11.977h-3.561L6.802,50.17l-3.273,3.094v7H0.876V40.178z"
	/>
<path d="M42.628,40.178h3.07l7.291,20.086h-2.98l-2.098-6.016h-7.879l-2.18,6.016h-2.789L42.628,40.178z M47.14,52.033l-3.092-8.871
	l-3.215,8.871H47.14z"/>
<path d="M69.738,40.178h3.172l5.773,9.656l5.771-9.656h3.203L80.05,52.17v8.094h-2.72V52.17L69.738,40.178z"/>
<path d="M112.114,40.178h3.07l7.289,20.086h-2.98l-2.098-6.016h-7.879l-2.18,6.016h-2.789L112.114,40.178z M116.626,52.033
	l-3.094-8.871l-3.215,8.871H116.626z"/>
<path d="M155.979,40.178v2.395h-6.766v17.691h-2.75V42.572h-6.766v-2.395H155.979z"/>
<path d="M7.819,80.178h3.07l7.291,20.088H15.2l-2.098-6.016H5.223l-2.18,6.016H0.254L7.819,80.178z M12.331,92.035l-3.092-8.873
	l-3.215,8.873H12.331z"/>
<path d="M35.831,80.178h9.129c1.504,0,2.744,0.227,3.719,0.672c1.854,0.855,2.779,2.438,2.779,4.744
	c0,1.203-0.248,2.188-0.744,2.953c-0.498,0.766-1.193,1.383-2.086,1.848c0.783,0.32,1.375,0.738,1.77,1.258
	c0.398,0.52,0.619,1.363,0.664,2.527l0.096,2.695c0.027,0.766,0.092,1.336,0.191,1.711c0.164,0.637,0.455,1.047,0.875,1.227v0.453
	h-3.336c-0.092-0.172-0.164-0.398-0.219-0.672s-0.1-0.801-0.137-1.586l-0.164-3.348c-0.062-1.312-0.535-2.191-1.422-2.637
	c-0.504-0.25-1.297-0.371-2.377-0.371h-6.018v8.613h-2.721V80.178z M44.666,89.383c1.243,0,2.223-0.254,2.946-0.766
	s1.084-1.43,1.084-2.762c0-1.432-0.506-2.408-1.516-2.928c-0.541-0.273-1.264-0.41-2.168-0.41h-6.461v6.865H44.666z"/>
<path d="M85.001,81.643c1.387,1.34,2.156,2.865,2.309,4.568h-2.652c-0.293-1.293-0.883-2.322-1.766-3.08
	c-0.879-0.754-2.117-1.133-3.71-1.133c-1.941,0-3.51,0.695-4.705,2.086c-1.195,1.393-1.793,3.525-1.793,6.4
	c0,2.352,0.54,4.262,1.62,5.727c1.078,1.465,2.688,2.195,4.828,2.195c1.968,0,3.468-0.77,4.496-2.312
	c0.547-0.809,0.953-1.875,1.223-3.195h2.652c-0.234,2.113-1.008,3.887-2.324,5.316c-1.574,1.723-3.703,2.582-6.376,2.582
	c-2.307,0-4.244-0.703-5.811-2.117c-2.064-1.871-3.096-4.758-3.096-8.66c0-2.965,0.775-5.395,2.324-7.295
	c1.676-2.062,3.986-3.094,6.931-3.094C81.661,79.631,83.614,80.303,85.001,81.643z"/>
<path d="M105.603,80.178h2.746v8.303h10.324v-8.303h2.746v20.088h-2.746v-9.391h-10.324v9.391h-2.746V80.178z"/>
<path d="M146.464,80.178h2.75v20.088h-2.75V80.178z"/>
<path d="M17.359,120.18v2.395h-6.768v17.691H7.843v-17.691H1.076v-2.395H17.359z"/>
<path d="M36.637,120.18h14.574v2.461H39.29v6.102h11.02v2.32H39.29v6.812h12.126v2.391H36.637V120.18z"/>
<path d="M84.998,121.645c1.387,1.34,2.16,2.863,2.312,4.566h-2.652c-0.297-1.293-0.887-2.32-1.766-3.078
	C82.01,122.379,80.771,122,79.178,122c-1.939,0-3.508,0.695-4.703,2.086c-1.195,1.391-1.793,3.523-1.793,6.398
	c0,2.352,0.539,4.262,1.619,5.727c1.078,1.465,2.688,2.195,4.828,2.195c1.967,0,3.467-0.77,4.498-2.312
	c0.547-0.809,0.953-1.875,1.223-3.195h2.652c-0.234,2.113-1.012,3.887-2.324,5.316c-1.578,1.723-3.703,2.582-6.378,2.582
	c-2.307,0-4.244-0.703-5.811-2.117c-2.064-1.871-3.096-4.758-3.096-8.66c0-2.965,0.775-5.395,2.324-7.293
	c1.676-2.062,3.986-3.094,6.932-3.094C81.662,119.633,83.611,120.305,84.998,121.645z"/>
<path d="M121.651,120.18v2.395h-6.766v17.691h-2.75v-17.691h-6.766v-2.395H121.651z"/>
<path d="M142.588,133.785c0.062,1.141,0.32,2.066,0.777,2.777c0.871,1.328,2.402,1.992,4.598,1.992c0.984,0,1.879-0.145,2.688-0.438
	c1.562-0.562,2.344-1.574,2.344-3.031c0-1.094-0.332-1.875-0.996-2.34c-0.668-0.457-1.719-0.852-3.152-1.191l-2.633-0.613
	c-1.723-0.402-2.941-0.844-3.656-1.324c-1.238-0.84-1.855-2.094-1.855-3.762c0-1.805,0.609-3.285,1.824-4.441
	c1.215-1.16,2.934-1.738,5.16-1.738c2.051,0,3.789,0.508,5.223,1.523s2.148,2.641,2.148,4.875h-2.555
	c-0.133-1.074-0.41-1.902-0.84-2.473c-0.797-1.051-2.145-1.574-4.051-1.574c-1.539,0-2.645,0.336-3.316,1.012
	s-1.008,1.457-1.008,2.352c0,0.984,0.395,1.703,1.191,2.16c0.52,0.293,1.699,0.656,3.535,1.094l2.73,0.645
	c1.316,0.309,2.332,0.73,3.047,1.27c1.234,0.938,1.855,2.301,1.855,4.09c0,2.223-0.789,3.812-2.367,4.77s-3.41,1.434-5.5,1.434
	c-2.438,0-4.344-0.637-5.719-1.914c-1.379-1.266-2.055-2.984-2.027-5.152H142.588z"/>
</svg>
